<svg xmlns="http://www.w3.org/2000/svg" width="36.62" height="39.146" viewBox="0 0 36.62 39.146">
  <path id="Tracé_55" data-name="Tracé 55" d="M6.165,43.312h29.02a4.393,4.393,0,0,0,2.778-.792,2.631,2.631,0,0,0,1.01-2.193,9.218,9.218,0,0,0-1.263-4.42,15.363,15.363,0,0,0-3.662-4.328A19.454,19.454,0,0,0,28.275,28.3a21.564,21.564,0,0,0-7.6-1.263A21.659,21.659,0,0,0,13.064,28.3,19.263,19.263,0,0,0,7.29,31.579a15.62,15.62,0,0,0-3.662,4.328,9.155,9.155,0,0,0-1.274,4.42,2.631,2.631,0,0,0,1.01,2.193A4.434,4.434,0,0,0,6.165,43.312ZM20.7,23.153a7.8,7.8,0,0,0,4.316-1.274,9.488,9.488,0,0,0,3.18-3.455A9.986,9.986,0,0,0,29.4,13.51a9.462,9.462,0,0,0-1.205-4.776,9.262,9.262,0,0,0-3.18-3.341,8.206,8.206,0,0,0-8.656.011,9.237,9.237,0,0,0-3.2,3.375,9.373,9.373,0,0,0-1.182,4.776,9.968,9.968,0,0,0,1.194,4.867,9.359,9.359,0,0,0,3.18,3.455A7.9,7.9,0,0,0,20.7,23.153Z" transform="translate(-2.354 -4.166)"/>
</svg>
