<svg xmlns="http://www.w3.org/2000/svg" width="36.62" height="46.413" viewBox="0 0 36.62 46.413">
  <path id="Tracé_8" data-name="Tracé 8" d="M12.26,31.939a1.482,1.482,0,0,1-1.093-.433,1.427,1.427,0,0,1-.433-1.048,1.39,1.39,0,0,1,.433-1.036A1.5,1.5,0,0,1,12.26,29H29.135a1.474,1.474,0,0,1,1.07.421,1.39,1.39,0,0,1,.433,1.036,1.427,1.427,0,0,1-.433,1.048,1.454,1.454,0,0,1-1.07.433Zm0,8.107a1.5,1.5,0,0,1-1.093-.421,1.39,1.39,0,0,1-.433-1.036,1.416,1.416,0,0,1,.433-1.059,1.5,1.5,0,0,1,1.093-.421H29.135a1.474,1.474,0,0,1,1.07.421,1.416,1.416,0,0,1,.433,1.059,1.39,1.39,0,0,1-.433,1.036,1.474,1.474,0,0,1-1.07.421ZM9.208,48.792h22.91a6.944,6.944,0,0,0,5.135-1.731,7.047,7.047,0,0,0,1.719-5.17V22.465H23.123q-4.054,0-4.054-4.031V2.379H9.208A6.923,6.923,0,0,0,4.084,4.121,7.059,7.059,0,0,0,2.354,9.3V41.891a7.018,7.018,0,0,0,1.731,5.17A6.951,6.951,0,0,0,9.208,48.792Zm14.12-29.355H38.723a3.2,3.2,0,0,0-.569-1.423,11.137,11.137,0,0,0-1.3-1.514l-11.82-12a10.5,10.5,0,0,0-1.492-1.3,3.214,3.214,0,0,0-1.423-.592V18.229A1.067,1.067,0,0,0,23.328,19.436Z" transform="translate(-2.354 -2.379)"/>
</svg>
