<svg xmlns="http://www.w3.org/2000/svg" width="36.62" height="51.351" viewBox="0 0 36.62 51.351">
  <path id="Icon_metro-steps" data-name="Icon metro-steps" d="M16.149,3.856c-4.3,0-7.794,5.748-7.794,12.838,0,3.945.975,8.129,1.949,14.588.762,5.06,2.617,9.253,5.846,9.253s5.392-2.8,5.392-7.907c0-1.741-1.431-4.513-1.495-6.879-.116-4.267,2.862-5.97,2.862-9.915,0-7.09-2.455-11.978-6.759-11.978ZM37.181,18.528c-4.3,0-6.759,4.888-6.759,11.978,0,3.945,2.977,5.647,2.862,9.915-.064,2.366-1.495,5.138-1.495,6.879,0,5.111,2.163,7.907,5.392,7.907s5.083-4.193,5.846-9.253C44,39.494,44.975,35.31,44.975,31.365c0-7.09-3.49-12.838-7.794-12.838Z" transform="translate(-8.355 -3.856)"/>
</svg>
