<svg xmlns="http://www.w3.org/2000/svg" width="36.62" height="36.62" viewBox="0 0 36.62 36.62">
  <path id="Tracé_56" data-name="Tracé 56" d="M19.97,39.468a17.537,17.537,0,0,0,7.068-1.442,18.772,18.772,0,0,0,9.8-9.8,17.616,17.616,0,0,0,1.432-7.077,17.537,17.537,0,0,0-1.442-7.068,18.875,18.875,0,0,0-3.967-5.852,18.418,18.418,0,0,0-5.843-3.958,17.737,17.737,0,0,0-7.068-1.423,17.67,17.67,0,0,0-7.058,1.423,18.719,18.719,0,0,0-9.81,9.81A17.636,17.636,0,0,0,1.65,21.148a17.517,17.517,0,0,0,1.442,7.077,18.86,18.86,0,0,0,9.8,9.8A17.517,17.517,0,0,0,19.97,39.468ZM19.593,24.9q-1.64,0-1.64-1.527v-.226a3.27,3.27,0,0,1,.65-2.111,8.059,8.059,0,0,1,1.63-1.508,13.672,13.672,0,0,0,1.772-1.414,2.18,2.18,0,0,0-.132-3.1,2.8,2.8,0,0,0-1.885-.613,2.9,2.9,0,0,0-1.545.415A3.643,3.643,0,0,0,17.275,16l-.3.415a2.194,2.194,0,0,1-.613.547,1.612,1.612,0,0,1-.839.207,1.414,1.414,0,0,1-.933-.358,1.258,1.258,0,0,1-.424-1.018,2.445,2.445,0,0,1,.047-.481q.047-.236.1-.443a4.306,4.306,0,0,1,1.951-2.243,7.273,7.273,0,0,1,3.892-.942,7.92,7.92,0,0,1,2.968.547,5.064,5.064,0,0,1,2.186,1.611,4.181,4.181,0,0,1,.82,2.629,3.78,3.78,0,0,1-.829,2.573A10.706,10.706,0,0,1,23.1,20.9a6.647,6.647,0,0,0-1.395,1.15,2.007,2.007,0,0,0-.49,1.3.21.21,0,0,0-.019.094v.113a1.287,1.287,0,0,1-.452.952A1.664,1.664,0,0,1,19.593,24.9Zm-.038,5.6a2.117,2.117,0,0,1-1.489-.575,1.839,1.839,0,0,1-.622-1.4,1.869,1.869,0,0,1,.622-1.414,2.19,2.19,0,0,1,2.968-.009,1.873,1.873,0,0,1,.613,1.423,1.831,1.831,0,0,1-.622,1.414A2.113,2.113,0,0,1,19.555,30.5Z" transform="translate(-1.65 -2.848)"/>
</svg>
