<svg xmlns="http://www.w3.org/2000/svg" width="28.477" height="25" viewBox="0 0 28.477 25">
  <path id="Tracé_44" data-name="Tracé 44" d="M19.664,25.557H13.52V17.88a.881.881,0,0,1,.255-.661.914.914,0,0,1,.667-.249h4.312a.857.857,0,0,1,.91.91ZM6.117,24.946a2.614,2.614,0,0,0,.723,1.963,2.736,2.736,0,0,0,1.994.7H24.362a2.754,2.754,0,0,0,2.006-.7,2.614,2.614,0,0,0,.723-1.963V15.8L17.309,7.6a.979.979,0,0,0-1.421,0L6.117,15.786ZM2.354,14.39a1,1,0,0,0,.305.723,1.091,1.091,0,0,0,.816.312,1.063,1.063,0,0,0,.492-.118,1.841,1.841,0,0,0,.417-.293L16.15,5.156a.705.705,0,0,1,.455-.193.671.671,0,0,1,.467.193l11.74,9.858a2.126,2.126,0,0,0,.43.293,1.063,1.063,0,0,0,.492.118,1.167,1.167,0,0,0,.779-.268.918.918,0,0,0,.318-.742,1.147,1.147,0,0,0-.411-.9L18.156,3.224a2.317,2.317,0,0,0-1.539-.611,2.363,2.363,0,0,0-1.552.611L2.79,13.531A1.063,1.063,0,0,0,2.354,14.39Zm21.6-5.533,3.166,2.667V5.941a.813.813,0,0,0-.86-.86H24.824a.864.864,0,0,0-.629.237.831.831,0,0,0-.243.623Z" transform="translate(-2.354 -2.613)"/>
</svg>
