<svg xmlns="http://www.w3.org/2000/svg" width="28.477" height="25" viewBox="0 0 28.477 25">
  <path id="Tracé_43" data-name="Tracé 43" d="M13.2,26.23h6.792V17.681a.906.906,0,0,0-.243-.661.872.872,0,0,0-.654-.249H14.118a.909.909,0,0,0-.673.249.893.893,0,0,0-.249.661ZM8.585,27.613H24.537a2.779,2.779,0,0,0,2.025-.71,2.639,2.639,0,0,0,.729-1.982V11.861l-2.119-1.433v13.9a1.186,1.186,0,0,1-.3.866,1.133,1.133,0,0,1-.847.305H9.1a1.129,1.129,0,0,1-.854-.305,1.2,1.2,0,0,1-.293-.866v-13.9L5.831,11.861V24.921A2.652,2.652,0,0,0,6.553,26.9,2.775,2.775,0,0,0,8.585,27.613ZM2.354,14.39a1,1,0,0,0,.305.723,1.091,1.091,0,0,0,.816.312,1.063,1.063,0,0,0,.492-.118,1.841,1.841,0,0,0,.417-.293L16.15,5.156a.705.705,0,0,1,.455-.193.671.671,0,0,1,.467.193l11.74,9.858a2.126,2.126,0,0,0,.43.293,1.063,1.063,0,0,0,.492.118,1.167,1.167,0,0,0,.779-.268.918.918,0,0,0,.318-.742,1.147,1.147,0,0,0-.411-.9L18.156,3.224a2.317,2.317,0,0,0-1.539-.611,2.363,2.363,0,0,0-1.552.611L2.79,13.531A1.063,1.063,0,0,0,2.354,14.39ZM24.126,8.857l3.166,2.667V5.941a.813.813,0,0,0-.86-.86H25a.859.859,0,0,0-.636.237.843.843,0,0,0-.237.623Z" transform="translate(-2.354 -2.613)"/>
</svg>
