<svg xmlns="http://www.w3.org/2000/svg" width="35.091" height="25" viewBox="0 0 35.091 25">
  <path id="Tracé_5" data-name="Tracé 5" d="M9.7,15.01H39.871a2.481,2.481,0,0,0,1.758-.635,2.18,2.18,0,0,0,.684-1.676,2.193,2.193,0,0,0-.684-1.66,2.445,2.445,0,0,0-1.758-.651H9.7a2.5,2.5,0,0,0-1.774.651,2.168,2.168,0,0,0-.7,1.66,2.155,2.155,0,0,0,.7,1.676A2.54,2.54,0,0,0,9.7,15.01ZM9.7,25.2H39.871a2.481,2.481,0,0,0,1.758-.635,2.4,2.4,0,0,0,0-3.353,2.481,2.481,0,0,0-1.758-.635H9.7a2.54,2.54,0,0,0-1.774.635,2.358,2.358,0,0,0,0,3.353A2.54,2.54,0,0,0,9.7,25.2Zm0,10.189H39.871a2.481,2.481,0,0,0,1.758-.635,2.377,2.377,0,0,0,0-3.337,2.445,2.445,0,0,0-1.758-.651H9.7a2.5,2.5,0,0,0-1.774.651,2.338,2.338,0,0,0,0,3.337A2.54,2.54,0,0,0,9.7,35.388Z" transform="translate(-7.222 -10.388)"/>
</svg>
