<svg xmlns="http://www.w3.org/2000/svg" width="36.62" height="34.402" viewBox="0 0 36.62 34.402">
  <path id="Tracé_10" data-name="Tracé 10" d="M2.354,34.989a2.16,2.16,0,0,0,.592,1.627,2.188,2.188,0,0,0,1.59.573,3.11,3.11,0,0,0,1.534-.481l7.172-3.863V3.508q-.277.111-.564.259t-.6.314l-8.1,4.64A3.008,3.008,0,0,0,2.751,9.848a3.182,3.182,0,0,0-.4,1.627ZM15.7,32.456l8.6,4.788a4.707,4.707,0,0,0,.5.25,4.338,4.338,0,0,0,.5.176V8.869L16.92,3.785a5.329,5.329,0,0,0-.619-.314,4.062,4.062,0,0,0-.6-.2Zm12.071,5.157q.148-.055.287-.12t.287-.139l8.984-5.1A3.366,3.366,0,0,0,38.567,31.1a3.039,3.039,0,0,0,.407-1.6V6.022a2.13,2.13,0,0,0-.6-1.645,2.291,2.291,0,0,0-1.617-.555,3.259,3.259,0,0,0-1.59.481l-7.394,4.1Z" transform="translate(-2.354 -3.268)"/>
</svg>
