<svg xmlns="http://www.w3.org/2000/svg" width="25.76" height="26" viewBox="0 0 25.76 26">
  <path id="icn-search" d="M2.129,13.338a9.976,9.976,0,0,0,.786,3.951,10.234,10.234,0,0,0,5.424,5.43,9.928,9.928,0,0,0,3.945.786,9.71,9.71,0,0,0,3.065-.48,10.342,10.342,0,0,0,2.679-1.333l5.983,6.01a1.6,1.6,0,0,0,.573.353,1.943,1.943,0,0,0,.653.113,1.648,1.648,0,0,0,.853-.22,1.584,1.584,0,0,0,.586-.6,1.752,1.752,0,0,0,.213-.873,1.705,1.705,0,0,0-.12-.626,1.84,1.84,0,0,0-.346-.56l-5.957-5.97a9.881,9.881,0,0,0,1.986-5.983,9.976,9.976,0,0,0-.786-3.951A10.116,10.116,0,0,0,19.48,6.148a10.363,10.363,0,0,0-3.238-2.186,9.889,9.889,0,0,0-3.958-.793,9.855,9.855,0,0,0-3.945.793A10.363,10.363,0,0,0,5.1,6.148,10.116,10.116,0,0,0,2.915,9.387,9.976,9.976,0,0,0,2.129,13.338Zm2.425,0a7.578,7.578,0,0,1,.6-3.005A7.7,7.7,0,0,1,6.82,7.867,7.852,7.852,0,0,1,9.285,6.208a7.829,7.829,0,0,1,6.01,0,7.763,7.763,0,0,1,4.118,4.124,7.829,7.829,0,0,1,0,6.01A7.763,7.763,0,0,1,15.3,20.467a7.829,7.829,0,0,1-6.01,0A7.852,7.852,0,0,1,6.82,18.808a7.7,7.7,0,0,1-1.666-2.465A7.578,7.578,0,0,1,4.554,13.338Z" transform="translate(-1.629 -2.67)" stroke="rgba(0,0,0,0)" stroke-width="1"/>
</svg>
