<svg xmlns="http://www.w3.org/2000/svg" width="31.174" height="26" viewBox="0 0 31.174 26">
  <path id="icn-square" d="M5.1,15.192h8.509a2.813,2.813,0,0,0,2.06-.684,2.855,2.855,0,0,0,.691-2.109V6.569a2.86,2.86,0,0,0-.691-2.1,2.8,2.8,0,0,0-2.06-.691H5.1a2.8,2.8,0,0,0-2.06.691,2.86,2.86,0,0,0-.691,2.1V12.4a2.855,2.855,0,0,0,.691,2.109A2.813,2.813,0,0,0,5.1,15.192Zm.029-2.067a.7.7,0,0,1-.527-.178.767.767,0,0,1-.171-.549V6.569a.767.767,0,0,1,.171-.549.7.7,0,0,1,.527-.178h8.438a.726.726,0,0,1,.534.178.748.748,0,0,1,.178.549V12.4a.748.748,0,0,1-.178.549.726.726,0,0,1-.534.178Zm16.135,2.067h8.509a2.809,2.809,0,0,0,2.067-.684,2.874,2.874,0,0,0,.684-2.109V6.569a2.878,2.878,0,0,0-.684-2.1,2.791,2.791,0,0,0-2.067-.691H21.267a2.77,2.77,0,0,0-2.052.691,2.878,2.878,0,0,0-.684,2.1V12.4a2.874,2.874,0,0,0,.684,2.109A2.788,2.788,0,0,0,21.267,15.192Zm.043-2.067a.722.722,0,0,1-.542-.178A.767.767,0,0,1,20.6,12.4V6.569a.767.767,0,0,1,.171-.549.722.722,0,0,1,.542-.178h8.452a.7.7,0,0,1,.52.178.748.748,0,0,1,.178.549V12.4a.748.748,0,0,1-.178.549.7.7,0,0,1-.52.178ZM5.1,28.775h8.509a2.813,2.813,0,0,0,2.06-.684,2.834,2.834,0,0,0,.691-2.1V20.152a2.834,2.834,0,0,0-.691-2.1,2.813,2.813,0,0,0-2.06-.684H5.1a2.813,2.813,0,0,0-2.06.684,2.834,2.834,0,0,0-.691,2.1V26a2.834,2.834,0,0,0,.691,2.1A2.813,2.813,0,0,0,5.1,28.775Zm.029-2.052a.685.685,0,0,1-.527-.185A.772.772,0,0,1,4.434,26v-5.83a.767.767,0,0,1,.171-.549.7.7,0,0,1,.527-.178h8.438a.726.726,0,0,1,.534.178.748.748,0,0,1,.178.549V26a.752.752,0,0,1-.178.542.709.709,0,0,1-.534.185Zm16.135,2.052h8.509a2.809,2.809,0,0,0,2.067-.684,2.852,2.852,0,0,0,.684-2.1V20.152a2.852,2.852,0,0,0-.684-2.1,2.809,2.809,0,0,0-2.067-.684H21.267a2.788,2.788,0,0,0-2.052.684,2.852,2.852,0,0,0-.684,2.1V26a2.852,2.852,0,0,0,.684,2.1A2.788,2.788,0,0,0,21.267,28.775Zm.043-2.052a.705.705,0,0,1-.542-.185A.772.772,0,0,1,20.6,26v-5.83a.767.767,0,0,1,.171-.549.722.722,0,0,1,.542-.178h8.452a.7.7,0,0,1,.52.178.748.748,0,0,1,.178.549V26a.752.752,0,0,1-.178.542.689.689,0,0,1-.52.185Z" transform="translate(-1.854 -3.275)" stroke="rgba(0,0,0,0)" stroke-width="1"/>
</svg>
