<svg xmlns="http://www.w3.org/2000/svg" width="36.62" height="35" viewBox="0 0 36.62 35">
  <path id="Tracé_6" data-name="Tracé 6" d="M8.913,36.445a1.455,1.455,0,0,0,1.22.311,3.629,3.629,0,0,0,1.48-.71L20.2,29.731l8.583,6.316a3.629,3.629,0,0,0,1.48.71,1.455,1.455,0,0,0,1.22-.311,1.617,1.617,0,0,0,.649-1.073,3.4,3.4,0,0,0-.2-1.609L28.537,23.674l8.653-6.213a3.409,3.409,0,0,0,1.125-1.185,1.59,1.59,0,0,0,.1-1.255,1.574,1.574,0,0,0-.831-.952A3.417,3.417,0,0,0,36,13.776l-10.625.069L22.134,3.687a3.436,3.436,0,0,0-.779-1.419,1.629,1.629,0,0,0-2.319,0,3.583,3.583,0,0,0-.8,1.419L15.022,13.845,4.4,13.776A3.417,3.417,0,0,0,2.8,14.07a1.574,1.574,0,0,0-.831.952,1.519,1.519,0,0,0,.1,1.255A3.5,3.5,0,0,0,3.2,17.462l8.653,6.213L8.463,33.763a3.4,3.4,0,0,0-.2,1.609A1.617,1.617,0,0,0,8.913,36.445Z" transform="translate(-1.881 -1.783)"/>
</svg>
